<?xml version="1.0" encoding="UTF-8"?>
<!DOCTYPE svg PUBLIC "-//W3C//DTD SVG 1.1//EN" "http://www.w3.org/Graphics/SVG/1.1/DTD/svg11.dtd">
<svg xmlns="http://www.w3.org/2000/svg" version="1.1" width="2592px" height="1152px" style="shape-rendering:geometricPrecision; text-rendering:geometricPrecision; image-rendering:optimizeQuality; fill-rule:evenodd; clip-rule:evenodd" xmlns:xlink="http://www.w3.org/1999/xlink">
<g><path style="opacity:0.998" fill="#f55197" d="M 339.5,286.5 C 336.584,285.189 334.084,285.855 332,288.5C 331.833,270.824 331.333,253.157 330.5,235.5C 325.302,231.803 319.969,228.303 314.5,225C 305.485,224.62 296.485,224.953 287.5,226C 278.595,230.568 269.928,235.568 261.5,241C 258.871,246.425 256.371,251.925 254,257.5C 253.833,299.837 253.333,342.171 252.5,384.5C 248.833,386.5 245.167,388.5 241.5,390.5C 240.548,388.955 240.215,387.288 240.5,385.5C 239.5,385.5 238.5,385.5 237.5,385.5C 237.817,382.428 237.484,379.428 236.5,376.5C 231.453,372.977 226.12,369.977 220.5,367.5C 204.949,376.528 189.782,386.195 175,396.5C 174.5,365.835 174.333,335.168 174.5,304.5C 169.09,302.974 163.756,301.141 158.5,299C 150.167,298.888 141.834,299.222 133.5,300C 127.966,303.698 122.299,307.198 116.5,310.5C 115.5,355.828 115.167,401.162 115.5,446.5C 110.825,446.206 106.325,445.206 102,443.5C 101.536,444.094 101.369,444.761 101.5,445.5C 99.6763,427.364 98.5097,409.03 98,390.5C 97.5,291.834 97.3333,193.167 97.5,94.5C 257.167,94.5 416.833,94.5 576.5,94.5C 576.5,136.5 576.5,178.5 576.5,220.5C 497.5,220.5 418.5,220.5 339.5,220.5C 339.5,242.5 339.5,264.5 339.5,286.5 Z"/></g>
<g><path style="opacity:1" fill="#feaac7" d="M 285.5,100.5 C 287.387,106.559 288.387,112.892 288.5,119.5C 289.5,119.5 290.5,119.5 291.5,119.5C 291.5,122.5 291.5,125.5 291.5,128.5C 295.603,127.769 299.103,128.769 302,131.5C 302.667,132.5 302.667,133.5 302,134.5C 297.319,132.095 292.485,131.928 287.5,134C 280.076,136.432 274.076,140.766 269.5,147C 268.4,147.432 267.733,146.932 267.5,145.5C 270.082,139.915 274.082,135.582 279.5,132.5C 282.31,122.056 284.31,111.389 285.5,100.5 Z"/></g>
<g><path style="opacity:0.953" fill="#f55197" d="M 786.5,115.5 C 804.915,115.023 815.249,123.856 817.5,142C 817.476,147.598 815.976,152.764 813,157.5C 804.333,170.167 795.667,182.833 787,195.5C 783.897,193.697 781.063,191.53 778.5,189C 783.747,181.84 788.747,174.507 793.5,167C 772.586,167.079 763.086,156.579 765,135.5C 768.551,124.777 775.718,118.11 786.5,115.5 Z M 789.5,126.5 C 799.529,127.513 805.195,133.013 806.5,143C 805.436,151.898 800.436,157.065 791.5,158.5C 776.282,155.066 772.116,146.399 779,132.5C 782.069,129.554 785.569,127.554 789.5,126.5 Z"/></g>
<g><path style="opacity:0.956" fill="#f55197" d="M 859.5,115.5 C 873.806,116.297 882.973,123.631 887,137.5C 891.33,153.189 889.663,168.189 882,182.5C 872.874,194.081 861.708,196.581 848.5,190C 838.072,180.73 833.072,169.064 833.5,155C 833.326,141.844 837.659,130.511 846.5,121C 850.561,118.265 854.894,116.432 859.5,115.5 Z M 857.5,127.5 C 864.228,126.449 869.395,128.782 873,134.5C 878.178,146.555 878.845,158.888 875,171.5C 868.397,184.323 860.064,185.657 850,175.5C 848.073,172.052 846.739,168.385 846,164.5C 843.798,152.637 845.798,141.637 852,131.5C 853.812,130.023 855.645,128.69 857.5,127.5 Z"/></g>
<g><path style="opacity:0.965" fill="#f45196" d="M 723.5,118.5 C 729.833,118.5 736.167,118.5 742.5,118.5C 742.5,142.833 742.5,167.167 742.5,191.5C 739.167,191.5 735.833,191.5 732.5,191.5C 732.5,170.833 732.5,150.167 732.5,129.5C 728.116,129.826 723.783,129.492 719.5,128.5C 720.645,125.058 721.979,121.725 723.5,118.5 Z"/></g>
<g><path style="opacity:0.96" fill="#f55097" d="M 900.5,118.5 C 920.836,118.333 941.169,118.5 961.5,119C 944.329,144.327 926.996,169.494 909.5,194.5C 906.659,192.914 903.993,191.08 901.5,189C 915.081,169.172 928.415,149.172 941.5,129C 927.837,128.5 914.171,128.333 900.5,128.5C 900.5,125.167 900.5,121.833 900.5,118.5 Z"/></g>
<g><path style="opacity:1" fill="#feaec9" d="M 288.5,136.5 C 305.537,136.313 307.703,141.646 295,152.5C 294.503,155.146 294.336,157.813 294.5,160.5C 295.5,160.5 296.5,160.5 297.5,160.5C 296.866,167.689 300.2,170.522 307.5,169C 318.228,173.397 325.062,181.231 328,192.5C 329.828,200.385 330.994,208.385 331.5,216.5C 333.422,217.711 335.255,219.044 337,220.5C 337.667,221.5 337.667,222.5 337,223.5C 334.954,225.376 333.121,227.376 331.5,229.5C 326.302,225.803 320.969,222.303 315.5,219C 305.485,218.584 295.485,218.917 285.5,220C 277.332,225.252 268.999,230.252 260.5,235C 257.215,241.019 254.215,247.186 251.5,253.5C 249.604,254.466 247.604,254.799 245.5,254.5C 246.498,250.342 247.998,246.342 250,242.5C 250.333,231.833 250.667,221.167 251,210.5C 252.057,202.056 255.057,194.389 260,187.5C 265,183.167 270,178.833 275,174.5C 274.907,171.044 275.907,168.044 278,165.5C 278.497,163.19 278.663,160.857 278.5,158.5C 273.165,158.995 270.665,156.662 271,151.5C 272.467,148.734 274.3,146.234 276.5,144C 280.396,141.225 284.396,138.725 288.5,136.5 Z"/></g>
<g><path style="opacity:1" fill="#fea9c7" d="M 144.5,187.5 C 145.824,195.384 147.157,203.384 148.5,211.5C 153.614,210.607 156.114,212.607 156,217.5C 145.948,214.293 137.615,216.96 131,225.5C 131.114,219.841 133.947,215.841 139.5,213.5C 141.913,204.928 143.579,196.261 144.5,187.5 Z"/></g>
<g><path style="opacity:1" fill="#feacc8" d="M 143.5,218.5 C 147.182,218.335 150.848,218.501 154.5,219C 157.087,220.525 157.92,222.692 157,225.5C 155.71,227.792 154.043,229.792 152,231.5C 151.505,233.473 151.338,235.473 151.5,237.5C 147.288,237.078 143.288,237.744 139.5,239.5C 138.833,238.167 138.167,236.833 137.5,235.5C 132.53,233.945 131.363,230.945 134,226.5C 136.775,223.22 139.942,220.554 143.5,218.5 Z"/></g>
<g><path style="opacity:1" fill="#feadc9" d="M 339.5,286.5 C 339.5,288.833 339.5,291.167 339.5,293.5C 334.61,295.711 329.944,298.378 325.5,301.5C 324.833,284.167 324.167,266.833 323.5,249.5C 321.15,248.139 318.816,246.806 316.5,245.5C 316.44,244.957 316.107,244.624 315.5,244.5C 314.168,315.332 314.168,385.999 315.5,456.5C 318.503,455.582 321.337,454.249 324,452.5C 324.167,404.497 324.667,356.497 325.5,308.5C 328.64,306.527 331.64,304.36 334.5,302C 336.025,300.991 337.692,300.491 339.5,300.5C 339.215,352.234 340.882,403.901 344.5,455.5C 334.86,459.986 325.193,464.486 315.5,469C 306.799,468.448 298.132,467.281 289.5,465.5C 282.209,468.097 274.876,470.597 267.5,473C 262.985,477.348 258.651,481.848 254.5,486.5C 253.667,455.172 253.167,423.839 253,392.5C 243.748,398.544 234.248,404.211 224.5,409.5C 223.833,402.833 223.167,396.167 222.5,389.5C 220.417,390.959 218.25,392.292 216,393.5C 215.824,390.118 215.324,386.785 214.5,383.5C 194.749,395.124 175.249,407.124 156,419.5C 155.828,423.871 155.328,428.204 154.5,432.5C 153.252,433.04 152.085,433.707 151,434.5C 150.831,441.191 150.331,447.858 149.5,454.5C 146.003,457.083 142.336,459.416 138.5,461.5C 137.833,489.833 137.167,518.167 136.5,546.5C 129.145,549.845 121.812,553.178 114.5,556.5C 107.623,519.813 103.289,482.813 101.5,445.5C 101.369,444.761 101.536,444.094 102,443.5C 106.325,445.206 110.825,446.206 115.5,446.5C 115.167,401.162 115.5,355.828 116.5,310.5C 122.299,307.198 127.966,303.698 133.5,300C 141.834,299.222 150.167,298.888 158.5,299C 163.756,301.141 169.09,302.974 174.5,304.5C 174.333,335.168 174.5,365.835 175,396.5C 189.782,386.195 204.949,376.528 220.5,367.5C 226.12,369.977 231.453,372.977 236.5,376.5C 237.484,379.428 237.817,382.428 237.5,385.5C 238.5,385.5 239.5,385.5 240.5,385.5C 240.215,387.288 240.548,388.955 241.5,390.5C 245.167,388.5 248.833,386.5 252.5,384.5C 253.333,342.171 253.833,299.837 254,257.5C 256.371,251.925 258.871,246.425 261.5,241C 269.928,235.568 278.595,230.568 287.5,226C 296.485,224.953 305.485,224.62 314.5,225C 319.969,228.303 325.302,231.803 330.5,235.5C 331.333,253.157 331.833,270.824 332,288.5C 334.084,285.855 336.584,285.189 339.5,286.5 Z"/></g>
<g><path style="opacity:1" fill="#feadc9" d="M 146.5,238.5 C 148.199,238.34 149.866,238.506 151.5,239C 152.868,246.042 156.868,251.042 163.5,254C 169.866,260.07 173.366,267.57 174,276.5C 174.333,282.5 174.667,288.5 175,294.5C 176,295.167 177,295.833 178,296.5C 178.667,300.5 178.667,304.5 178,308.5C 177.333,309.167 176.667,309.833 176,310.5C 175.501,306.848 175.335,303.182 175.5,299.5C 169.832,297.778 164.165,295.944 158.5,294C 150.498,293.857 142.498,294.19 134.5,295C 128.5,298.333 122.5,301.667 116.5,305C 114.998,307.574 113.998,310.407 113.5,313.5C 111.833,313.167 110.833,312.167 110.5,310.5C 110.528,306.108 112.028,302.442 115,299.5C 113.937,280.671 119.937,264.671 133,251.5C 134.562,249.043 135.562,246.376 136,243.5C 139.262,241.145 142.762,239.478 146.5,238.5 Z"/></g>
<g><path style="opacity:0.999" fill="#f55197" d="M 316.5,245.5 C 318.816,246.806 321.15,248.139 323.5,249.5C 324.167,266.833 324.833,284.167 325.5,301.5C 329.944,298.378 334.61,295.711 339.5,293.5C 339.5,295.833 339.5,298.167 339.5,300.5C 337.692,300.491 336.025,300.991 334.5,302C 331.64,304.36 328.64,306.527 325.5,308.5C 324.667,356.497 324.167,404.497 324,452.5C 321.337,454.249 318.503,455.582 315.5,456.5C 315.167,385.998 315.501,315.665 316.5,245.5 Z"/></g>
<g><path style="opacity:1" fill="#f55197" d="M 299.5,248.5 C 300.5,248.5 301.5,248.5 302.5,248.5C 302.5,316.5 302.5,384.5 302.5,452.5C 298.846,452.058 295.179,451.724 291.5,451.5C 291.5,383.833 291.5,316.167 291.5,248.5C 294.167,248.5 296.833,248.5 299.5,248.5 Z"/></g>
<g><path style="opacity:1" fill="#fa7eaf" d="M 299.5,248.5 C 300.568,247.566 301.901,247.232 303.5,247.5C 303.833,316.002 303.499,384.335 302.5,452.5C 302.5,384.5 302.5,316.5 302.5,248.5C 301.5,248.5 300.5,248.5 299.5,248.5 Z"/></g>
<g><path style="opacity:1" fill="#f55699" d="M 275.5,253.5 C 276.832,319.335 276.832,385.335 275.5,451.5C 272.167,452.833 268.833,454.167 265.5,455.5C 264.38,393.502 263.88,331.502 264,269.5C 265.167,266.5 266.333,263.5 267.5,260.5C 270.212,258.115 272.878,255.782 275.5,253.5 Z"/></g>
<g><path style="opacity:0.994" fill="#949598" d="M 384.5,265.5 C 448.834,265.333 513.168,265.5 577.5,266C 570.283,290.598 559.45,313.431 545,334.5C 535.145,347.534 524.812,360.201 514,372.5C 487.206,397.956 461.872,424.623 438,452.5C 422.584,472.655 410.25,494.655 401,518.5C 394.119,484.245 389.785,449.579 388,414.5C 385.294,364.87 384.127,315.204 384.5,265.5 Z"/></g>
<g><path style="opacity:0.995" fill="#21135e" d="M 671.5,266.5 C 767.665,265.501 863.999,265.167 960.5,265.5C 961.74,327.932 959.907,390.265 955,452.5C 949.337,527.485 931.004,599.152 900,667.5C 850.44,766.222 774.607,836.889 672.5,879.5C 654.767,871.8 637.434,863.3 620.5,854C 609.938,848.091 599.938,841.424 590.5,834C 609.243,811.252 628.743,789.085 649,767.5C 670.6,743.203 688.266,716.203 702,686.5C 724.973,630.67 725.306,574.67 703,518.5C 697.363,504.19 689.03,491.857 678,481.5C 668.579,528.867 646.412,569.033 611.5,602C 584.572,626.05 557.739,650.216 531,674.5C 513.226,692.944 498.559,713.611 487,736.5C 474.669,720.516 463.835,703.516 454.5,685.5C 458.509,678.815 463.009,672.482 468,666.5C 475.098,657.979 482.431,649.646 490,641.5C 521.972,610.528 553.639,579.195 585,547.5C 599.752,531.419 613.752,514.752 627,497.5C 678.871,427.644 693.704,350.644 671.5,266.5 Z"/></g>
<g><path style="opacity:0.995" fill="#f55197" d="M 1288.5,282.5 C 1372.55,278.391 1444.55,305.391 1504.5,363.5C 1480.83,391.5 1457.17,419.5 1433.5,447.5C 1409.98,420.167 1380.98,401 1346.5,390C 1285.31,376.695 1236.81,395.528 1201,446.5C 1172.71,497.614 1172.38,548.948 1200,600.5C 1230.37,647.433 1273.54,668.266 1329.5,663C 1356.45,658.465 1381.12,648.465 1403.5,633C 1413.64,625.197 1423.47,617.03 1433,608.5C 1456.96,632.798 1480.63,657.465 1504,682.5C 1504.67,683.5 1504.67,684.5 1504,685.5C 1439.6,749.263 1362.1,777.43 1271.5,770C 1182.45,757.888 1117.62,712.055 1077,632.5C 1051.89,574.714 1047.55,515.381 1064,454.5C 1089.06,377.771 1139.56,325.604 1215.5,298C 1239.39,290.058 1263.72,284.891 1288.5,282.5 Z"/></g>
<g><path style="opacity:0.99" fill="#f55096" d="M 1577.5,286.5 C 1703.17,286.5 1828.83,286.5 1954.5,286.5C 1954.5,318.833 1954.5,351.167 1954.5,383.5C 1869.83,383.5 1785.17,383.5 1700.5,383.5C 1700.5,414.833 1700.5,446.167 1700.5,477.5C 1776.83,477.5 1853.17,477.5 1929.5,477.5C 1929.5,509.833 1929.5,542.167 1929.5,574.5C 1853.17,574.5 1776.83,574.5 1700.5,574.5C 1700.5,606.167 1700.5,637.833 1700.5,669.5C 1787.5,669.5 1874.5,669.5 1961.5,669.5C 1961.5,701.833 1961.5,734.167 1961.5,766.5C 1833.5,766.5 1705.5,766.5 1577.5,766.5C 1577.5,606.5 1577.5,446.5 1577.5,286.5 Z"/></g>
<g><path style="opacity:0.993" fill="#f55097" d="M 2053.5,286.5 C 2094.5,286.5 2135.5,286.5 2176.5,286.5C 2176.33,383.167 2176.5,479.834 2177,576.5C 2184.16,634.993 2217.16,665.993 2276,669.5C 2323.88,667.939 2354.54,644.273 2368,598.5C 2370.64,588 2371.97,577.333 2372,566.5C 2372.5,473.167 2372.67,379.834 2372.5,286.5C 2413.17,286.5 2453.83,286.5 2494.5,286.5C 2494.67,383.167 2494.5,479.834 2494,576.5C 2492.77,625.226 2476.77,668.226 2446,705.5C 2409.67,743.411 2365.17,764.911 2312.5,770C 2264.87,775.804 2218.53,770.47 2173.5,754C 2112.18,728.005 2074.01,682.505 2059,617.5C 2056.31,604.632 2054.64,591.632 2054,578.5C 2053.5,481.167 2053.33,383.834 2053.5,286.5 Z"/></g>
<g><path style="opacity:1" fill="#f767a3" d="M 316.5,245.5 C 315.501,315.665 315.167,385.998 315.5,456.5C 314.168,385.999 314.168,315.332 315.5,244.5C 316.107,244.624 316.44,244.957 316.5,245.5 Z"/></g>
<g><path style="opacity:1" fill="#f55297" d="M 141.5,315.5 C 145.167,315.5 148.833,315.5 152.5,315.5C 153.536,346.835 153.536,378.169 152.5,409.5C 151.186,410.313 150.019,411.313 149,412.5C 148.827,416.541 148.327,420.541 147.5,424.5C 146.833,424.833 146.167,425.167 145.5,425.5C 144.833,432.833 144.167,440.167 143.5,447.5C 141.742,448.128 140.242,449.128 139,450.5C 138.702,405.829 138.202,361.162 137.5,316.5C 139.099,316.768 140.432,316.434 141.5,315.5 Z"/></g>
<g><path style="opacity:1" fill="#f5579a" d="M 159.5,315.5 C 162.699,316.899 166.032,317.899 169.5,318.5C 169.667,345.502 169.5,372.502 169,399.5C 166,401.5 163,403.5 160,405.5C 159.5,375.502 159.333,345.502 159.5,315.5 Z"/></g>
<g><path style="opacity:1" fill="#f55297" d="M 128.5,319.5 C 129.499,392.998 129.833,466.665 129.5,540.5C 126.979,542.019 124.479,543.686 122,545.5C 121.333,471.167 121.333,396.833 122,322.5C 123.993,321.086 126.16,320.086 128.5,319.5 Z"/></g>
<g><path style="opacity:0.996" fill="#f55197" d="M 344.5,455.5 C 344.949,461.569 345.616,467.569 346.5,473.5C 338.972,476.565 331.305,479.232 323.5,481.5C 323.5,542.5 323.5,603.5 323.5,664.5C 343.5,660.167 363.5,655.833 383.5,651.5C 401.57,696.695 427.07,737.028 460,772.5C 511.59,826.458 569.757,871.624 634.5,908C 586.079,909.487 537.746,908.154 489.5,904C 437.274,898.778 387.274,885.444 339.5,864C 329.622,859.566 320.288,854.4 311.5,848.5C 311.833,726.332 311.5,604.332 310.5,482.5C 304.239,481.134 298.072,479.468 292,477.5C 291.5,597.166 291.333,716.833 291.5,836.5C 287.975,835.241 284.975,833.241 282.5,830.5C 282.833,714.165 282.5,597.831 281.5,481.5C 277.588,483.372 273.755,485.372 270,487.5C 269.833,598.667 269.333,709.667 268.5,820.5C 267.128,819.488 265.795,818.488 264.5,817.5C 265.666,709.001 265.833,600.334 265,491.5C 264.283,492.044 263.783,492.711 263.5,493.5C 260.864,496.31 258.364,499.31 256,502.5C 255.824,505.882 255.324,509.215 254.5,512.5C 250.989,510.713 247.322,509.879 243.5,510C 206.105,528.365 168.771,546.698 131.5,565C 127.74,564.8 124.074,563.967 120.5,562.5C 120.824,569.354 120.491,576.021 119.5,582.5C 117.834,573.835 116.167,565.168 114.5,556.5C 121.812,553.178 129.145,549.845 136.5,546.5C 137.167,518.167 137.833,489.833 138.5,461.5C 142.336,459.416 146.003,457.083 149.5,454.5C 150.331,447.858 150.831,441.191 151,434.5C 152.085,433.707 153.252,433.04 154.5,432.5C 155.328,428.204 155.828,423.871 156,419.5C 175.249,407.124 194.749,395.124 214.5,383.5C 215.324,386.785 215.824,390.118 216,393.5C 218.25,392.292 220.417,390.959 222.5,389.5C 223.167,396.167 223.833,402.833 224.5,409.5C 234.248,404.211 243.748,398.544 253,392.5C 253.167,423.839 253.667,455.172 254.5,486.5C 258.651,481.848 262.985,477.348 267.5,473C 274.876,470.597 282.209,468.097 289.5,465.5C 298.132,467.281 306.799,468.448 315.5,469C 325.193,464.486 334.86,459.986 344.5,455.5 Z"/></g>
<g><path style="opacity:1" fill="#fc98bd" d="M 128.5,319.5 C 128.56,318.957 128.893,318.624 129.5,318.5C 130.832,392.666 130.832,466.666 129.5,540.5C 129.833,466.665 129.499,392.998 128.5,319.5 Z"/></g>
<g><path style="opacity:1" fill="#feaec9" d="M 204.5,412.5 C 205.978,412.238 207.311,412.571 208.5,413.5C 209.262,417.111 209.762,420.778 210,424.5C 213,426.167 215.333,428.5 217,431.5C 217.393,434.633 218.226,437.633 219.5,440.5C 227.583,435.375 235.75,430.375 244,425.5C 244.833,448.174 244.666,470.841 243.5,493.5C 229.246,500.109 215.579,507.442 202.5,515.5C 201.833,513.833 201.167,512.167 200.5,510.5C 193.645,519.928 184.312,524.594 172.5,524.5C 171.902,525.795 171.402,527.128 171,528.5C 169.229,529.304 167.729,530.471 166.5,532C 158.787,534.358 151.454,537.525 144.5,541.5C 143.334,524.51 143.167,507.51 144,490.5C 147.821,487.257 151.821,484.257 156,481.5C 156.854,469.762 158.187,458.095 160,446.5C 161.144,444.083 162.81,443.416 165,444.5C 165.245,448.853 165.245,453.187 165,457.5C 166.183,458.731 167.349,458.731 168.5,457.5C 170.345,452.602 173.012,448.435 176.5,445C 174.586,438.285 174.086,431.452 175,424.5C 177.841,422.496 181.007,421.996 184.5,423C 188.833,426 192.5,429.667 195.5,434C 199.063,434.123 201.23,432.29 202,428.5C 202.333,423.833 202.667,419.167 203,414.5C 203.717,413.956 204.217,413.289 204.5,412.5 Z"/></g>
<g><path style="opacity:1" fill="#feadc9" d="M 346.5,473.5 C 350.394,534.641 362.728,593.974 383.5,651.5C 363.5,655.833 343.5,660.167 323.5,664.5C 323.5,603.5 323.5,542.5 323.5,481.5C 331.305,479.232 338.972,476.565 346.5,473.5 Z"/></g>
<g><path style="opacity:1" fill="#feaec9" d="M 310.5,482.5 C 310.833,604.334 310.5,726.001 309.5,847.5C 302.967,844.619 296.967,840.953 291.5,836.5C 291.333,716.833 291.5,597.166 292,477.5C 298.072,479.468 304.239,481.134 310.5,482.5 Z"/></g>
<g><path style="opacity:1" fill="#feaec9" d="M 282.5,830.5 C 277.531,827.522 272.865,824.189 268.5,820.5C 269.333,709.667 269.833,598.667 270,487.5C 273.755,485.372 277.588,483.372 281.5,481.5C 282.5,597.831 282.833,714.165 282.5,830.5 Z"/></g>
<g><path style="opacity:1" fill="#f984b2" d="M 310.5,482.5 C 311.5,604.332 311.833,726.332 311.5,848.5C 310.508,848.672 309.842,848.338 309.5,847.5C 310.5,726.001 310.833,604.334 310.5,482.5 Z"/></g>
<g><path style="opacity:1" fill="#fc9dc0" d="M 264.5,817.5 C 263.167,816.833 262.167,815.833 261.5,814.5C 262.496,814.414 263.329,814.748 264,815.5C 264.833,707.999 264.666,600.666 263.5,493.5C 263.783,492.711 264.283,492.044 265,491.5C 265.833,600.334 265.666,709.001 264.5,817.5 Z"/></g>
<g><path style="opacity:1" fill="#feadc9" d="M 263.5,493.5 C 264.666,600.666 264.833,707.999 264,815.5C 263.329,814.748 262.496,814.414 261.5,814.5C 258.911,813.581 256.911,811.914 255.5,809.5C 255.833,779.826 255.5,750.159 254.5,720.5C 233.068,725.354 211.568,730.02 190,734.5C 188.467,734.227 186.967,733.894 185.5,733.5C 181.991,729.145 178.991,724.478 176.5,719.5C 178.832,717.904 181.499,716.738 184.5,716C 207.737,709.691 231.07,703.691 254.5,698C 255.483,689.585 255.817,681.085 255.5,672.5C 225.12,680.678 194.787,689.012 164.5,697.5C 163.817,697.137 163.15,696.804 162.5,696.5C 156.465,687.097 151.465,677.097 147.5,666.5C 147.577,665.25 148.244,664.417 149.5,664C 184.548,652.595 219.548,641.095 254.5,629.5C 255.5,593.506 255.833,557.506 255.5,521.5C 251.908,520.131 248.241,519.298 244.5,519C 206.833,536.667 169.167,554.333 131.5,572C 130.841,587.265 130.174,602.431 129.5,617.5C 125.718,606.051 122.385,594.384 119.5,582.5C 120.491,576.021 120.824,569.354 120.5,562.5C 124.074,563.967 127.74,564.8 131.5,565C 168.771,546.698 206.105,528.365 243.5,510C 247.322,509.879 250.989,510.713 254.5,512.5C 255.324,509.215 255.824,505.882 256,502.5C 258.364,499.31 260.864,496.31 263.5,493.5 Z"/></g>
<g><path style="opacity:0.999" fill="#f55197" d="M 147.5,666.5 C 139.945,650.845 133.945,634.511 129.5,617.5C 130.174,602.431 130.841,587.265 131.5,572C 169.167,554.333 206.833,536.667 244.5,519C 248.241,519.298 251.908,520.131 255.5,521.5C 255.833,557.506 255.5,593.506 254.5,629.5C 219.548,641.095 184.548,652.595 149.5,664C 148.244,664.417 147.577,665.25 147.5,666.5 Z"/></g>
<g><path style="opacity:0.996" fill="#f55297" d="M 176.5,719.5 C 171.083,712.341 166.417,704.675 162.5,696.5C 163.15,696.804 163.817,697.137 164.5,697.5C 194.787,689.012 225.12,680.678 255.5,672.5C 255.817,681.085 255.483,689.585 254.5,698C 231.07,703.691 207.737,709.691 184.5,716C 181.499,716.738 178.832,717.904 176.5,719.5 Z"/></g>
<g><path style="opacity:0.992" fill="#f55197" d="M 255.5,809.5 C 228.995,786.998 205.661,761.665 185.5,733.5C 186.967,733.894 188.467,734.227 190,734.5C 211.568,730.02 233.068,725.354 254.5,720.5C 255.5,750.159 255.833,779.826 255.5,809.5 Z"/></g>
<g><path style="opacity:0.908" fill="#20135e" d="M 214.5,1003.5 C 221.062,1003.12 227.395,1004.12 233.5,1006.5C 234.655,1009.45 234.821,1012.45 234,1015.5C 222.251,1008.81 211.918,1010.47 203,1020.5C 197.925,1033.18 201.759,1042.02 214.5,1047C 221.502,1048.38 228.002,1047.21 234,1043.5C 234.667,1046.5 234.667,1049.5 234,1052.5C 216.417,1059.61 203.084,1054.95 194,1038.5C 190.234,1020.47 197.067,1008.8 214.5,1003.5 Z"/></g>
<g><path style="opacity:0.928" fill="#20135e" d="M 322.5,1003.5 C 334.494,1014.66 345.994,1026.33 357,1038.5C 357.5,1027.51 357.667,1016.51 357.5,1005.5C 360.167,1005.5 362.833,1005.5 365.5,1005.5C 365.833,1022.51 365.499,1039.51 364.5,1056.5C 353.208,1044.71 341.708,1033.04 330,1021.5C 329.5,1032.49 329.333,1043.49 329.5,1054.5C 327.167,1054.5 324.833,1054.5 322.5,1054.5C 322.5,1037.5 322.5,1020.5 322.5,1003.5 Z"/></g>
<g><path style="opacity:0.906" fill="#20135e" d="M 399.5,1003.5 C 406.062,1003.12 412.395,1004.12 418.5,1006.5C 419.655,1009.45 419.821,1012.45 419,1015.5C 406.024,1008.25 395.357,1010.58 387,1022.5C 384.317,1041.15 392.483,1049.32 411.5,1047C 414.196,1046.24 416.696,1045.07 419,1043.5C 419.667,1046.5 419.667,1049.5 419,1052.5C 404.706,1058.64 392.373,1055.98 382,1044.5C 373.064,1024.38 378.897,1010.72 399.5,1003.5 Z"/></g>
<g><path style="opacity:0.918" fill="#20135e" d="M 479.5,1003.5 C 487.982,1019.8 495.982,1036.47 503.5,1053.5C 500.894,1054.65 498.227,1054.82 495.5,1054C 493.5,1050 491.5,1046 489.5,1042C 483.167,1041.33 476.833,1041.33 470.5,1042C 468.5,1046 466.5,1050 464.5,1054C 461.833,1054.67 459.167,1054.67 456.5,1054C 464.036,1037.1 471.702,1020.26 479.5,1003.5 Z M 479.5,1020.5 C 481.814,1025.06 484.147,1029.73 486.5,1034.5C 482.167,1035.83 477.833,1035.83 473.5,1034.5C 475.512,1029.81 477.512,1025.15 479.5,1020.5 Z"/></g>
<g><path style="opacity:0.926" fill="#26125b" d="M 250.5,1005.5 C 253.167,1005.5 255.833,1005.5 258.5,1005.5C 258.667,1021.5 258.5,1037.5 258,1053.5C 255.619,1054.44 253.119,1054.77 250.5,1054.5C 250.5,1038.17 250.5,1021.83 250.5,1005.5 Z"/></g>
<g><path style="opacity:0.871" fill="#20145e" d="M 278.5,1005.5 C 287.833,1005.5 297.167,1005.5 306.5,1005.5C 306.5,1007.83 306.5,1010.17 306.5,1012.5C 299.833,1012.5 293.167,1012.5 286.5,1012.5C 286.5,1016.17 286.5,1019.83 286.5,1023.5C 293.167,1023.5 299.833,1023.5 306.5,1023.5C 306.5,1026.17 306.5,1028.83 306.5,1031.5C 299.833,1031.5 293.167,1031.5 286.5,1031.5C 286.5,1036.5 286.5,1041.5 286.5,1046.5C 293.167,1046.5 299.833,1046.5 306.5,1046.5C 306.5,1049.17 306.5,1051.83 306.5,1054.5C 297.167,1054.5 287.833,1054.5 278.5,1054.5C 278.5,1038.17 278.5,1021.83 278.5,1005.5 Z"/></g>
<g><path style="opacity:0.924" fill="#20135e" d="M 435.5,1005.5 C 437.833,1005.5 440.167,1005.5 442.5,1005.5C 442.5,1021.83 442.5,1038.17 442.5,1054.5C 440.167,1054.5 437.833,1054.5 435.5,1054.5C 435.5,1038.17 435.5,1021.83 435.5,1005.5 Z"/></g>
<g><path style="opacity:0.919" fill="#21135e" d="M 531.5,1006.5 C 534.304,1005.36 537.304,1005.2 540.5,1006C 543.874,1011.92 547.374,1017.75 551,1023.5C 554.698,1017.97 558.198,1012.3 561.5,1006.5C 564.5,1005.17 567.5,1005.17 570.5,1006.5C 565.333,1014.83 560.167,1023.17 555,1031.5C 554.5,1039.16 554.334,1046.83 554.5,1054.5C 552.167,1054.5 549.833,1054.5 547.5,1054.5C 547.666,1046.83 547.5,1039.16 547,1031.5C 541.97,1022.99 536.804,1014.66 531.5,1006.5 Z"/></g>
<g><path style="opacity:0.902" fill="#21135e" d="M 603.5,1005.5 C 606.448,1005.22 609.281,1005.56 612,1006.5C 616.667,1017.17 621.333,1027.83 626,1038.5C 630.667,1027.83 635.333,1017.17 640,1006.5C 642.795,1005.22 645.628,1005.22 648.5,1006.5C 641.283,1022.99 633.783,1039.33 626,1055.5C 618.017,1039.05 610.517,1022.39 603.5,1005.5 Z"/></g>
<g><path style="opacity:0.914" fill="#20135f" d="M 660.5,1005.5 C 663.167,1005.5 665.833,1005.5 668.5,1005.5C 668.5,1021.83 668.5,1038.17 668.5,1054.5C 665.833,1054.5 663.167,1054.5 660.5,1054.5C 660.5,1038.17 660.5,1021.83 660.5,1005.5 Z"/></g>
<g><path style="opacity:0.922" fill="#20135e" d="M 686.5,1005.5 C 692.509,1005.33 698.509,1005.5 704.5,1006C 715.122,1010.77 717.622,1018.27 712,1028.5C 709.047,1030.73 705.88,1032.56 702.5,1034C 707.746,1040.34 712.08,1047.18 715.5,1054.5C 712.813,1054.66 710.146,1054.5 707.5,1054C 703,1047.5 698.5,1041 694,1034.5C 693.5,1041.16 693.334,1047.83 693.5,1054.5C 691.167,1054.5 688.833,1054.5 686.5,1054.5C 686.5,1038.17 686.5,1021.83 686.5,1005.5 Z M 693.5,1011.5 C 697.271,1011.91 700.938,1012.74 704.5,1014C 709.029,1019.97 707.695,1024.31 700.5,1027C 698.19,1027.5 695.857,1027.66 693.5,1027.5C 693.5,1022.17 693.5,1016.83 693.5,1011.5 Z"/></g>
<g><path style="opacity:0.86" fill="#21145f" d="M 726.5,1005.5 C 736.5,1005.5 746.5,1005.5 756.5,1005.5C 756.5,1007.83 756.5,1010.17 756.5,1012.5C 752.833,1012.5 749.167,1012.5 745.5,1012.5C 745.5,1026.5 745.5,1040.5 745.5,1054.5C 742.833,1054.5 740.167,1054.5 737.5,1054.5C 737.5,1040.5 737.5,1026.5 737.5,1012.5C 733.833,1012.5 730.167,1012.5 726.5,1012.5C 726.5,1010.17 726.5,1007.83 726.5,1005.5 Z"/></g>
<g><path style="opacity:0.91" fill="#21135e" d="M 772.5,1005.5 C 774.833,1005.5 777.167,1005.5 779.5,1005.5C 779.333,1016.84 779.5,1028.17 780,1039.5C 783.194,1047.84 789.027,1050.34 797.5,1047C 799.378,1045.46 800.878,1043.62 802,1041.5C 802.5,1029.5 802.667,1017.5 802.5,1005.5C 805.167,1005.5 807.833,1005.5 810.5,1005.5C 810.922,1018.56 810.422,1031.56 809,1044.5C 803.741,1054.38 795.575,1057.88 784.5,1055C 779.606,1053.31 776.106,1050.15 774,1045.5C 772.556,1032.24 772.056,1018.91 772.5,1005.5 Z"/></g>
<g><path style="opacity:0.888" fill="#20145e" d="M 824.5,1005.5 C 831.508,1005.33 838.508,1005.5 845.5,1006C 860.12,1010.39 866.287,1020.22 864,1035.5C 860.578,1047.25 852.744,1053.42 840.5,1054C 835.177,1054.5 829.844,1054.67 824.5,1054.5C 824.5,1038.17 824.5,1021.83 824.5,1005.5 Z M 832.5,1012.5 C 851.105,1011.11 858.605,1019.44 855,1037.5C 849.44,1044.95 841.94,1047.95 832.5,1046.5C 832.5,1035.17 832.5,1023.83 832.5,1012.5 Z"/></g>
</svg>
